<?xml version="1.0" standalone="no"?>
<!DOCTYPE svg PUBLIC "-//W3C//DTD SVG 20010904//EN"
 "http://www.w3.org/TR/2001/REC-SVG-20010904/DTD/svg10.dtd">
<svg version="1.0" xmlns="http://www.w3.org/2000/svg"
 width="900.000000pt" height="900.000000pt" viewBox="0 0 900.000000 900.000000"
 preserveAspectRatio="xMidYMid meet">
<metadata>
Created by potrace 1.14, written by Peter Selinger 2001-2017
</metadata>
<g transform="translate(0.000000,900.000000) scale(0.100000,-0.100000)"
fill="#000000" stroke="none">
<path d="M2067 8624 c-1 -2 -35 -4 -75 -5 -41 -1 -72 -6 -72 -12 0 -6 -3 -8
-6 -4 -17 17 -134 -81 -134 -111 0 -5 -7 -15 -15 -22 -14 -12 -46 -105 -50
-150 -8 -86 -17 -170 -21 -205 -3 -22 -7 -60 -9 -85 -3 -25 -7 -67 -10 -95 -4
-27 -8 -72 -11 -100 -2 -27 -6 -63 -8 -80 -3 -16 -8 -59 -10 -95 -3 -36 -8
-83 -10 -105 -3 -22 -8 -78 -11 -125 -4 -47 -8 -102 -10 -122 -2 -21 -7 -72
-10 -114 -3 -42 -8 -81 -12 -87 -4 -6 -1 -7 7 -2 9 5 11 4 6 -3 -9 -15 -14
-54 -21 -172 -3 -52 -7 -120 -10 -150 -3 -30 -8 -102 -11 -160 -3 -58 -7 -127
-9 -155 -8 -123 -23 -430 -30 -618 -2 -70 -7 -132 -10 -137 -3 -5 -1 -11 5
-15 6 -4 7 -11 3 -18 -3 -6 -8 -49 -9 -96 -7 -236 -15 -676 -14 -751 1 -47 1
-89 0 -95 -5 -79 -3 -605 3 -605 4 0 3 -9 -3 -20 -8 -14 -8 -20 0 -20 6 0 8
-5 4 -11 -7 -12 -6 -116 10 -719 1 -53 6 -102 11 -109 5 -10 4 -12 -3 -7 -16
9 -15 -7 0 -22 9 -9 9 -12 -1 -12 -7 0 -9 -5 -6 -10 4 -6 8 -63 10 -128 6
-165 18 -420 30 -607 2 -33 7 -105 10 -160 7 -118 11 -175 20 -310 4 -55 9
-120 10 -145 2 -25 4 -45 5 -45 1 0 3 -27 5 -60 5 -75 12 -171 20 -255 4 -36
8 -85 10 -110 4 -57 13 -151 20 -215 18 -167 19 -175 29 -300 3 -38 9 -86 12
-105 3 -19 7 -62 9 -95 3 -33 7 -71 11 -85 3 -14 8 -38 10 -55 7 -36 51 -115
65 -115 6 0 7 -4 4 -10 -3 -5 -1 -10 5 -10 6 0 21 -9 32 -20 15 -14 24 -16 29
-9 5 8 8 8 10 0 2 -6 18 -14 34 -17 17 -2 38 -7 49 -10 13 -5 16 -3 11 6 -5 9
-4 11 4 6 6 -4 55 -10 109 -13 53 -2 115 -6 137 -7 44 -3 93 11 113 31 8 7 18
11 23 7 5 -3 8 -2 7 3 -2 4 9 24 23 43 23 30 37 60 45 93 1 4 3 10 4 15 2 6 0
115 -3 197 -1 17 -6 33 -12 37 -6 5 -5 8 3 8 7 0 10 5 7 10 -7 12 -17 131 -19
222 -1 32 -5 58 -9 58 -4 0 -3 9 3 20 6 11 7 20 2 20 -4 0 -8 15 -7 32 0 18
-2 50 -6 70 -4 25 -3 38 5 38 7 0 7 3 1 8 -5 4 -10 30 -9 57 0 28 -3 60 -8 73
-6 17 -5 21 4 16 6 -4 9 -3 6 2 -4 5 -9 26 -12 47 -4 28 -3 36 6 31 7 -5 8 -3
2 7 -9 15 -11 36 -17 200 -2 58 -7 110 -10 116 -4 7 -3 14 3 18 6 4 7 12 3 18
-12 20 -12 67 0 67 9 0 9 2 1 8 -6 4 -11 23 -11 43 0 19 -3 41 -8 48 -4 8 -2
17 6 22 8 5 10 9 4 9 -6 0 -10 40 -10 100 0 55 -4 100 -9 100 -5 0 -3 7 4 15
7 8 9 15 4 15 -5 0 -10 18 -10 40 -1 26 3 37 10 33 7 -5 7 -2 0 8 -7 8 -11 32
-10 54 1 22 -2 46 -7 53 -6 7 -6 12 0 12 10 0 11 27 3 45 -3 6 -5 57 -5 115 0
60 -4 108 -10 112 -6 5 -5 8 4 8 10 0 11 3 2 14 -8 10 -9 16 -1 21 5 3 10 0
10 -7 0 -9 3 -9 10 2 6 10 10 11 10 3 0 -7 9 -13 20 -13 11 0 20 -5 20 -12 0
-6 3 -8 7 -5 3 4 15 -1 26 -10 15 -13 18 -14 12 -3 -6 11 -3 10 12 -3 23 -20
37 -22 28 -4 -4 6 3 1 14 -13 11 -14 21 -20 21 -13 0 7 7 10 15 7 8 -4 12 -11
8 -18 -3 -6 -3 -8 2 -4 4 4 20 1 35 -7 15 -8 30 -12 32 -9 3 2 11 -2 18 -11 7
-8 25 -15 41 -15 16 0 29 -5 29 -11 0 -6 8 -9 19 -6 11 2 24 -3 31 -13 7 -10
19 -16 26 -13 8 3 30 -4 50 -16 19 -12 32 -17 29 -11 -3 6 1 7 9 4 9 -3 16
-10 16 -15 0 -5 5 -9 11 -9 5 0 7 6 3 13 -4 6 2 4 13 -6 11 -9 30 -17 42 -17
15 0 20 -4 15 -12 -5 -8 0 -7 11 2 11 9 16 10 11 2 -5 -8 0 -12 16 -14 48 -3
53 -4 51 -14 -1 -7 8 -9 22 -6 14 2 25 0 25 -5 0 -7 22 -13 67 -16 7 0 9 -5 6
-10 -4 -6 0 -8 10 -4 10 3 17 2 17 -4 0 -6 4 -7 10 -4 5 3 10 0 10 -7 0 -9 3
-9 10 2 5 8 10 10 10 4 0 -6 6 -11 13 -12 49 -6 60 -10 68 -23 6 -10 9 -11 9
-1 0 10 5 10 20 2 10 -6 25 -9 32 -8 7 2 12 -2 11 -8 -1 -6 5 -11 13 -11 8 0
14 5 14 11 0 6 4 6 8 -2 5 -7 28 -14 51 -16 24 -2 47 -9 52 -17 7 -12 9 -12 9
1 0 13 1 13 10 0 9 -13 10 -13 10 0 0 12 2 13 9 1 5 -7 20 -14 35 -14 14 0 26
-3 26 -8 0 -5 11 -4 25 1 14 5 24 6 24 2 -3 -19 2 -25 11 -12 6 9 10 11 10 3
0 -7 7 -10 16 -6 9 3 20 0 25 -8 7 -12 9 -12 9 1 0 12 2 13 9 1 6 -9 29 -14
65 -14 31 -1 56 -5 56 -10 0 -4 5 -5 10 -2 6 3 10 1 10 -6 0 -7 6 -4 14 7 12
16 17 17 28 6 11 -11 10 -12 -7 -6 l-20 7 20 -16 c11 -9 22 -11 23 -6 5 13 29
11 35 -3 4 -10 6 -9 6 1 1 11 4 11 18 0 9 -8 14 -9 10 -3 -3 6 0 11 8 11 8 0
11 -5 8 -10 -3 -5 0 -7 8 -5 8 3 23 1 33 -5 16 -8 18 -6 12 9 -6 16 -5 16 15
-2 14 -12 19 -13 14 -4 -6 12 -5 13 6 2 17 -16 32 -16 23 1 -4 6 3 3 16 -8 13
-11 20 -14 16 -7 -9 15 30 17 39 2 4 -6 12 -7 18 -3 17 12 38 9 67 -7 24 -13
24 -12 10 5 -9 11 -10 16 -3 11 22 -12 52 -15 59 -5 3 6 10 6 17 1 7 -5 22
-12 35 -15 20 -5 21 -3 10 10 -11 14 -11 15 7 6 28 -14 85 -14 85 0 0 8 3 9 8
2 9 -13 62 -14 81 -1 9 6 12 5 8 -1 -7 -12 62 -11 81 1 7 4 12 2 12 -5 0 -8 5
-7 17 2 13 11 17 11 20 2 3 -7 9 -13 14 -13 6 0 7 4 4 10 -3 6 1 7 9 4 9 -3
16 -1 16 6 0 6 5 8 12 4 21 -13 62 -10 76 6 8 8 11 9 7 3 -8 -16 0 -16 27 -2
18 10 20 9 14 -7 -7 -17 -6 -17 13 0 13 12 21 14 26 6 5 -8 11 -8 21 1 8 6 14
8 14 3 0 -5 5 -2 10 6 7 11 10 12 10 2 0 -10 4 -10 16 2 11 12 20 13 33 6 12
-6 22 -5 29 2 9 9 12 9 12 -1 0 -7 5 -9 10 -6 6 4 8 10 6 13 -2 4 18 7 45 6
27 0 49 3 49 8 0 12 34 10 49 -5 10 -10 11 -9 6 5 -6 14 -1 16 25 11 20 -3 30
-1 26 6 -4 5 -1 13 5 17 8 5 9 3 4 -6 -6 -9 0 -10 26 -5 19 4 40 12 48 19 10
7 13 7 8 0 -3 -6 0 -11 8 -11 8 0 12 4 9 9 -3 4 7 9 23 10 46 2 51 3 59 11 4
4 16 7 26 7 13 0 17 4 12 13 -6 9 -4 9 8 -1 10 -8 18 -9 22 -3 4 6 14 7 23 4
11 -4 14 -3 9 5 -4 7 -2 12 3 12 6 0 11 -5 11 -11 0 -5 5 -7 10 -4 6 4 7 12 4
18 -5 9 -4 9 6 0 15 -14 43 -6 33 11 -3 6 -3 8 2 4 4 -4 14 -3 21 3 8 7 14 6
20 -2 5 -8 3 -9 -6 -4 -9 6 -11 4 -5 -5 6 -10 11 -10 20 3 7 9 15 14 19 10 3
-4 13 2 22 13 8 10 13 14 10 7 -4 -7 1 -11 13 -10 11 0 17 5 14 11 -4 5 3 7
15 4 13 -4 23 0 27 10 5 14 7 14 15 2 7 -10 10 -11 10 -2 0 6 9 12 19 12 11 0
23 5 26 11 4 5 12 8 18 6 7 -2 24 2 40 10 15 7 27 11 27 7 0 -4 7 -1 15 6 8 7
15 9 15 5 0 -4 6 -2 14 4 8 6 28 13 45 14 32 2 40 11 19 21 -7 3 -3 3 9 0 13
-3 28 -2 35 3 7 4 22 9 33 10 10 2 22 7 25 12 3 5 20 12 38 16 17 3 32 11 32
16 0 5 3 8 8 7 4 -1 22 6 41 16 18 10 30 12 26 6 -4 -6 12 0 35 15 23 15 39
21 34 13 -6 -10 -5 -11 8 -1 8 7 19 9 23 5 5 -4 5 -1 1 6 -6 11 5 17 27 13 4
0 7 4 7 10 0 5 5 7 10 4 6 -3 10 -2 10 4 0 5 9 8 19 6 11 -2 27 5 36 16 10 10
22 16 26 13 5 -3 9 -1 9 5 0 6 7 8 15 5 8 -4 15 -2 15 4 0 5 11 12 25 14 20 4
23 3 14 -8 -9 -11 -8 -14 0 -14 7 0 9 -5 4 -12 -11 -19 -12 -38 -2 -38 6 0 7
-6 2 -12 -4 -7 -9 -56 -11 -108 -4 -138 -9 -235 -12 -235 -1 0 -3 -12 -4 -28
-1 -15 2 -27 7 -27 6 0 5 -5 0 -12 -5 -7 -9 -43 -8 -80 1 -38 -1 -68 -4 -68
-3 0 -5 -31 -5 -70 1 -44 -2 -67 -9 -63 -6 4 -6 -1 1 -13 6 -11 7 -27 1 -42
-6 -16 -6 -21 2 -16 8 4 8 1 1 -13 -6 -11 -7 -25 -2 -33 5 -8 5 -19 0 -25 -4
-5 -7 -29 -6 -53 1 -24 0 -45 -3 -47 -3 -2 -6 -44 -6 -94 0 -50 -3 -91 -6 -91
-3 0 -6 -21 -6 -47 0 -61 -11 -221 -17 -251 -3 -13 0 -22 7 -22 8 0 8 -3 2 -8
-10 -7 -17 -72 -19 -179 -1 -35 -4 -63 -7 -63 -3 0 -5 -29 -5 -65 1 -36 -1
-65 -4 -65 -3 0 -6 -24 -7 -53 0 -28 -4 -88 -8 -132 -11 -121 -12 -189 -2
-202 5 -7 7 -13 3 -13 -4 0 1 -11 10 -25 9 -14 13 -25 9 -25 -4 0 10 -16 31
-35 33 -29 57 -39 90 -34 4 0 10 -5 15 -12 6 -10 11 -10 23 0 11 10 16 10 16
2 0 -8 5 -9 19 -2 10 6 22 7 26 3 10 -10 29 -9 37 3 5 6 8 6 8 0 0 -12 90 -13
109 -1 10 6 12 6 7 -2 -5 -8 4 -12 30 -12 43 0 114 20 114 32 0 4 5 8 11 8 19
0 89 81 110 128 20 43 26 67 34 142 2 19 6 55 9 80 4 25 9 68 11 95 6 62 16
151 21 190 6 49 14 127 18 170 2 22 5 40 6 40 1 0 3 23 5 50 2 28 6 73 10 100
7 60 15 134 19 196 2 25 5 50 7 55 3 5 5 26 4 47 0 20 2 37 5 37 3 0 4 25 4
55 -1 30 1 55 5 55 3 0 7 24 7 52 2 58 11 193 14 193 1 0 3 20 5 45 5 90 16
236 20 279 3 25 5 71 6 103 1 32 6 61 11 64 4 3 4 13 -2 23 -5 10 -7 21 -4 24
4 3 8 34 9 69 2 35 6 108 9 163 8 145 18 334 20 380 1 22 5 46 9 53 5 6 4 12
0 12 -5 0 -9 14 -8 30 0 17 2 30 5 30 3 0 6 44 6 98 3 237 10 380 17 375 5 -3
4 4 -2 16 -7 12 -9 26 -6 31 3 5 8 189 10 409 2 220 5 403 6 408 1 4 1 10 0
13 -1 3 -2 197 -4 432 -1 236 -5 428 -9 428 -4 0 -3 14 2 30 5 17 6 30 2 30
-4 0 -8 55 -9 123 -2 204 -11 416 -17 426 -4 5 -2 12 4 16 6 4 7 11 4 17 -4 6
-8 47 -10 92 -1 45 -5 131 -9 191 -11 197 -16 289 -20 375 -2 47 -4 85 -5 85
-1 0 -4 27 -5 60 -7 128 -13 193 -19 204 -4 6 -2 11 4 11 6 0 8 5 4 11 -7 12
-16 106 -18 196 0 35 -3 63 -6 63 -3 0 -6 15 -6 33 -1 33 -9 114 -18 177 -3
19 -8 58 -10 85 -3 28 -7 59 -10 70 -2 12 -7 52 -11 90 -9 79 -13 110 -15 110
-1 0 -3 18 -5 40 -2 22 -6 54 -8 70 -3 17 -8 54 -11 84 -6 44 -66 188 -66 157
0 -5 -9 3 -21 18 -11 14 -27 26 -35 26 -8 0 -14 4 -14 10 0 5 -3 9 -7 8 -5 -1
-20 4 -35 10 -29 12 -166 23 -303 26 -74 1 -83 -1 -122 -29 -24 -16 -43 -36
-43 -42 0 -7 -4 -13 -10 -13 -5 0 -9 -3 -8 -7 0 -5 -7 -25 -16 -47 -19 -42
-22 -98 -12 -226 10 -130 17 -238 20 -312 1 -37 5 -70 8 -74 4 -3 3 -17 -2
-30 -5 -13 -6 -24 -2 -24 4 0 7 -36 7 -81 0 -44 2 -82 5 -84 3 -2 4 -31 3 -64
0 -34 3 -64 9 -67 6 -4 5 -9 -3 -14 -10 -7 -10 -12 0 -23 8 -11 9 -17 1 -22
-6 -3 -8 -10 -5 -15 6 -10 16 -165 18 -282 0 -43 5 -78 10 -78 5 0 4 -6 -2
-14 -8 -10 -9 -16 -1 -21 7 -4 7 -12 0 -24 -5 -10 -7 -21 -3 -24 3 -4 7 -59 8
-122 2 -64 5 -119 9 -122 3 -3 1 -12 -5 -20 -6 -7 -8 -13 -3 -13 5 0 9 -53 9
-118 0 -64 4 -120 9 -123 14 -11 -38 -36 -86 -41 -9 -1 -14 -6 -12 -10 3 -4
-5 -9 -18 -10 -48 -3 -53 -4 -51 -14 1 -6 -8 -10 -20 -9 -12 1 -37 -4 -56 -11
-19 -8 -36 -12 -39 -9 -3 3 -11 0 -18 -6 -8 -6 -21 -9 -29 -5 -8 3 -15 1 -15
-3 0 -5 -7 -12 -16 -15 -9 -4 -13 -2 -8 5 4 7 -1 7 -15 -1 -24 -12 -49 -19
-96 -27 -16 -2 -37 -7 -45 -10 -8 -4 -28 -8 -45 -10 -16 -3 -37 -9 -47 -14
-13 -7 -18 -6 -18 3 0 9 -3 10 -8 2 -4 -6 -15 -10 -24 -8 -10 1 -18 -1 -18 -6
0 -5 -11 -7 -25 -5 -14 1 -25 -1 -25 -5 0 -3 -12 -7 -27 -8 -16 0 -39 -3 -53
-6 -25 -5 -76 -12 -140 -20 -19 -3 -35 -5 -35 -6 0 -4 -176 -22 -222 -23 -13
-1 -23 -4 -23 -7 0 -3 -18 -5 -40 -3 -29 1 -39 -1 -33 -10 5 -9 3 -9 -8 0 -12
10 -18 10 -27 1 -7 -7 -12 -8 -12 -2 0 10 -38 12 -56 3 -5 -3 -20 -5 -34 -4
-14 0 -28 -4 -32 -10 -5 -6 -8 -5 -8 3 0 7 -5 10 -10 7 -6 -3 -77 -8 -160 -10
-82 -2 -154 -6 -159 -9 -5 -4 -12 -2 -16 3 -3 7 -15 7 -29 1 -13 -5 -27 -6
-30 -2 -10 10 -36 11 -36 1 0 -5 -10 -5 -22 -1 -28 9 -49 9 -65 -1 -6 -4 -14
-3 -18 3 -3 5 -11 10 -16 10 -6 0 -7 -5 -3 -11 4 -8 1 -8 -12 -2 -11 5 -56 8
-101 8 -49 0 -83 4 -83 10 0 6 -4 4 -9 -4 -6 -9 -14 -10 -27 -4 -11 5 -44 8
-74 7 -30 0 -61 4 -67 9 -8 5 -13 6 -13 0 0 -5 -9 -9 -20 -9 -11 0 -20 3 -20
6 0 4 -21 7 -47 7 -61 1 -140 10 -152 17 -5 4 -12 2 -16 -4 -4 -6 -12 -7 -18
-3 -12 7 -35 11 -92 14 -16 1 -34 4 -39 7 -5 2 -29 6 -55 8 -25 1 -68 5 -96 9
-27 4 -60 8 -73 10 -12 1 -25 5 -29 9 -3 3 -13 0 -21 -7 -11 -8 -14 -9 -9 0 5
7 1 12 -10 12 -10 0 -31 2 -48 6 -16 3 -42 6 -57 7 -16 0 -28 5 -28 10 0 6 -7
5 -15 -2 -12 -10 -15 -10 -15 0 0 10 -3 10 -16 0 -12 -11 -15 -11 -12 1 2 8
-3 13 -11 11 -8 -2 -18 3 -22 10 -7 11 -9 11 -9 0 0 -7 -4 -10 -10 -7 -5 3
-22 8 -37 10 -69 11 -99 18 -115 26 -13 7 -18 6 -18 -3 0 -9 -3 -10 -8 -2 -4
6 -15 10 -24 8 -10 -1 -18 1 -18 6 0 4 -11 8 -25 9 -47 3 -55 4 -55 11 0 3
-10 7 -22 7 -32 2 -56 8 -64 16 -4 4 -14 1 -22 -6 -13 -9 -14 -9 -8 1 5 8 -1
12 -21 13 -15 1 -31 1 -35 0 -5 0 -8 4 -8 10 0 7 -12 10 -30 7 -16 -3 -30 -1
-30 4 0 5 -5 6 -10 3 -6 -3 -10 -2 -10 4 0 5 -8 8 -17 6 -10 -1 -27 5 -37 14
-11 9 -16 10 -12 3 10 -17 -23 -12 -42 6 -8 7 -18 10 -23 7 -5 -3 -18 -1 -30
6 -13 6 -19 7 -15 1 3 -6 -7 -4 -24 4 -16 9 -34 13 -40 9 -5 -3 -10 -1 -10 5
0 7 -7 10 -15 6 -8 -3 -15 -1 -15 4 0 5 -7 6 -17 3 -12 -5 -14 -3 -8 8 6 11 5
11 -5 2 -10 -9 -18 -8 -36 4 -13 8 -24 12 -24 8 0 -4 -7 -2 -15 5 -8 6 -18 9
-23 6 -18 -11 -38 29 -36 69 2 22 5 104 8 182 2 78 7 147 11 153 3 5 1 10 -5
10 -6 0 -8 5 -3 13 4 6 8 44 8 83 1 38 3 74 6 80 2 5 4 46 4 91 0 46 4 83 9
83 6 0 5 5 -1 11 -6 6 -8 22 -4 38 3 14 6 54 6 88 0 35 2 63 5 63 3 0 6 37 7
83 5 301 9 397 13 397 4 0 11 180 9 245 0 11 0 25 0 30 10 166 13 312 8 335
-14 58 -58 112 -106 132 -21 9 -227 19 -234 12z"/>
</g>
</svg>
